<svg xmlns="http://www.w3.org/2000/svg" fill="none" viewBox="0 0 49 48" height="48" width="49">
<path fill="black" d="M24.8149 2C36.9657 2 46.8149 11.8493 46.8149 24C46.8149 36.1499 36.9657 46 24.8149 46C24.5966 46 24.3782 45.9958 24.1616 45.99L28.6574 33.6334H34.8449C35.9308 33.6334 37.123 32.7985 37.4944 31.7778L42.3718 18.3797C43.1699 16.187 41.9142 14.3917 39.5801 14.3917H30.9957L23.7935 34.1831H23.7901L19.7075 45.4027C10.0206 43.0995 2.81494 34.3914 2.81494 24C2.81494 13.9081 9.61062 5.40411 18.8751 2.81234L14.6612 14.3917L7.65717 33.6334H12.3195L18.2761 17.283H21.7806L15.824 33.6334L20.4847 33.6343L26.0355 18.3797C26.8337 16.187 25.5771 14.3917 23.2455 14.3917H19.326L23.8261 2.02342C24.154 2.00836 24.4837 2 24.8149 2ZM34.6241 17.2713H38.1269L33.2211 30.7313H29.7183L34.6241 17.2713Z" clip-rule="evenodd" fill-rule="evenodd"></path>
</svg>
