<svg xmlns="http://www.w3.org/2000/svg" fill="none" viewBox="0 0 217 48" height="48" width="217">
<path fill="black" d="M14.831 11.0018C14.6296 11.0115 14.4338 11.0627 14.2451 11.1833C14.3231 11.1989 14.4025 11.2139 14.4826 11.2292L14.4827 11.2292C15.2007 11.3657 15.9818 11.5142 16.423 12.1511C16.6687 12.4122 16.5922 12.8134 16.3464 13.0426C15.8817 13.5966 15.0837 13.7704 14.4012 13.5934C13.4837 13.3768 12.5859 13.0791 11.6883 12.7814C10.3219 12.3284 8.95579 11.8754 7.52082 11.7086C6.24729 11.5405 5.00241 12.1531 4.12367 13.0394C3.31243 13.8532 3.01748 15.0885 3.17807 16.2042C3.35751 17.0867 4.0116 18.0037 4.95784 18.1336C4.39748 17.5248 4.29114 16.4678 4.87187 15.8348C5.20044 15.4273 5.78436 15.3713 6.26958 15.4464C7.26152 15.6308 8.23982 15.8767 9.21836 16.1226L9.21839 16.1226C10.0577 16.3335 10.8973 16.5445 11.7458 16.7168C12.0268 16.7933 12.3069 16.8738 12.587 16.9544C13.3328 17.1688 14.079 17.3834 14.8436 17.5223C14.8627 18.7792 14.8627 20.035 14.8436 21.2919C14.4133 21.6132 13.9953 21.9502 13.5773 22.2871L13.5772 22.2871C13.3358 22.4817 13.0944 22.6763 12.8506 22.8679C13.4988 23.3531 14.1674 23.8078 14.8374 24.2624C14.8605 25.2098 14.8572 26.1569 14.8538 27.1041C14.8509 27.9345 14.848 28.7649 14.8629 29.5954C13.7664 30.4423 12.2972 30.5798 10.9627 30.4232C9.5451 30.3443 8.28685 29.4999 7.35845 28.4747C8.91483 27.6443 10.501 26.8611 12.0929 26.0997C12.1279 24.3485 12.1231 22.5969 12.1183 20.8451C12.1154 19.7927 12.1125 18.7403 12.1183 17.6878C10.9549 18.1757 9.79843 18.6788 8.64209 19.1819C7.82125 19.539 7.00045 19.896 6.17724 20.2476C6.75033 18.7818 7.91613 17.5942 9.30695 16.8887C9.2313 16.8932 9.15488 16.8956 9.07824 16.898C8.78702 16.9072 8.49253 16.9165 8.22445 17.0415C5.62135 18.0693 3.47608 20.2782 2.66879 22.973C2.12881 24.6846 2.30264 26.556 2.88847 28.2295C3.61438 30.0914 4.95733 31.7395 6.73773 32.6805C7.73758 33.1976 8.81371 33.682 9.9599 33.6962C12.3325 33.8936 14.8285 32.9984 16.4294 31.2128C17.1193 30.4725 17.4715 29.5102 17.8136 28.5755L17.8272 28.5383C18.1482 27.6062 18.2933 26.614 18.2602 25.6283C17.4922 27.1515 16.4708 28.5821 15.0763 29.5922C15.081 28.6485 15.0798 27.7051 15.0786 26.7616V26.761C15.0775 25.9335 15.0765 25.106 15.0794 24.2784L15.1788 24.2026L15.1788 24.2026C15.7521 23.7656 16.3264 23.3278 16.8814 22.8679C16.348 22.3954 15.8175 21.9233 15.2856 21.45L15.2854 21.4498L15.0794 21.2665C15.0807 20.6385 15.0801 20.0099 15.0794 19.3815V19.3814C15.0788 18.7634 15.0781 18.1455 15.0794 17.5286C16.4357 17.4573 17.9964 16.7416 18.3619 15.3191C18.6166 14.3906 18.7497 13.291 18.1804 12.4504C17.657 11.8544 16.9782 11.3367 16.181 11.1928C16.0017 11.1771 15.8184 11.1392 15.6343 11.1011C15.3652 11.0453 15.0941 10.9892 14.831 11.0018ZM8.48678 22.4571V22.4571C8.48953 24.186 8.49228 25.9149 8.47597 27.6438C8.02514 27.8208 7.58183 28.0144 7.13876 28.2104C6.32115 27.0274 5.81301 25.6347 5.57868 24.2211C5.51501 23.0278 5.7366 21.8192 6.15177 20.6997C6.58719 20.4926 7.01731 20.2763 7.44758 20.0599C7.79253 19.8864 8.13758 19.7129 8.48552 19.544C8.48369 20.515 8.48524 21.486 8.48678 22.4571ZM164.041 11.0018C163.823 10.9952 163.609 11.0381 163.408 11.1833C163.53 11.2114 163.654 11.2352 163.778 11.2591L163.778 11.2591C164.12 11.3251 164.465 11.3914 164.78 11.5494C165.162 11.7328 165.415 12.1123 165.547 12.5045C165.619 12.9286 165.308 13.3196 164.936 13.4788C164.269 13.787 163.511 13.6444 162.831 13.4597C162.239 13.2781 161.651 13.0772 161.064 12.8763C160.037 12.5247 159.009 12.1731 157.951 11.9251C157.096 11.743 156.2 11.571 155.337 11.7977C154.401 12.0614 153.451 12.5096 152.898 13.3451C152.185 14.2658 152.095 15.5324 152.443 16.6149C152.729 17.337 153.31 18.047 154.13 18.1399C154.074 18.0683 154.01 17.9965 153.945 17.9233L153.945 17.9232C153.696 17.6451 153.43 17.3468 153.535 16.9587C153.609 16.4722 153.81 15.9787 154.2 15.6629C154.59 15.3687 155.124 15.3725 155.576 15.5037C156.687 15.7103 157.781 15.9876 158.875 16.265L158.876 16.2651C159.413 16.4014 159.951 16.5378 160.492 16.6658C161.005 16.7747 161.508 16.9217 162.012 17.0688C162.599 17.24 163.185 17.4113 163.787 17.5223C163.799 18.3141 163.798 19.1059 163.796 19.8981C163.795 20.3583 163.794 20.8187 163.796 21.2792L163.716 21.3504L163.714 21.352C163.14 21.8588 162.567 22.3654 162.001 22.8807C162.213 23.0448 162.424 23.2104 162.635 23.376L162.637 23.3768C163.02 23.6772 163.403 23.9775 163.793 24.2688C163.797 25.0843 163.797 25.9003 163.797 26.7164C163.796 27.6835 163.796 28.6507 163.803 29.6177C162.751 30.4058 161.366 30.6002 160.09 30.423C158.681 30.339 157.448 29.4909 156.512 28.4874C156.774 28.3043 157.062 28.1661 157.35 28.0276C157.483 27.9638 157.616 27.8999 157.747 27.8315C158.173 27.6218 158.597 27.4084 159.021 27.1951L159.023 27.1944C159.757 26.8251 160.49 26.4561 161.233 26.1059C161.256 24.3878 161.253 22.6693 161.249 20.9509C161.247 19.8631 161.245 18.7754 161.249 17.6878C160.445 18.0305 159.643 18.3797 158.84 18.729L158.84 18.7291C157.672 19.2377 156.504 19.7464 155.327 20.2349C155.781 19.1588 156.505 18.1743 157.479 17.5159L157.508 17.4899C157.791 17.2318 158.08 16.9679 158.466 16.8791C158.397 16.884 158.328 16.8876 158.258 16.8912C157.925 16.9085 157.59 16.9259 157.288 17.0797C154.493 18.2106 152.109 20.6775 151.583 23.7085C151.383 25.2469 151.526 26.8445 152.064 28.3027C152.753 30.0144 153.966 31.535 155.544 32.5054C156.299 32.9651 157.11 33.3351 157.957 33.591C159.984 33.9284 162.159 33.6368 163.933 32.5594C165.103 31.7431 166.19 30.6848 166.681 29.3119C167.207 28.1466 167.418 26.8737 167.445 25.6027C167.295 25.798 167.184 26.0159 167.072 26.2337C167.001 26.3724 166.93 26.5111 166.849 26.6438C166.176 27.7747 165.304 28.7993 164.242 29.5825C164.247 28.8606 164.245 28.1388 164.244 27.4169C164.241 26.3622 164.239 25.3075 164.258 24.2528C164.548 24.0432 164.829 23.822 165.111 23.6007L165.111 23.6003L165.112 23.6001C165.413 23.3631 165.715 23.126 166.028 22.9028C165.663 22.5244 165.266 22.1798 164.869 21.8355C164.659 21.6537 164.449 21.472 164.245 21.2854C164.24 20.7695 164.242 20.2533 164.243 19.7372V19.7353C164.246 19.006 164.248 18.2766 164.232 17.5476C165.397 17.4725 166.576 16.9497 167.203 15.927C167.855 14.8764 167.851 13.4449 167.222 12.3866C166.726 11.732 165.948 11.3105 165.143 11.1895C164.976 11.176 164.806 11.1372 164.635 11.0984C164.437 11.0532 164.237 11.0078 164.041 11.0018ZM157.645 19.5408C157.654 21.1205 157.652 22.6999 157.651 24.2794C157.65 25.3944 157.649 26.5094 157.651 27.6246C157.406 27.7274 157.161 27.8334 156.917 27.9393L156.915 27.94C156.704 28.0319 156.492 28.1238 156.279 28.2136C155.614 27.2788 155.097 26.2275 154.83 25.1094C154.536 23.6448 154.614 22.0573 155.295 20.7061C155.989 20.375 156.674 20.0301 157.36 19.6844L157.361 19.684L157.645 19.5408ZM62.931 11.8996C63.69 13.2292 63.215 15.0312 62.0727 15.9889C61.3969 16.4292 60.623 16.6794 59.8603 16.9259L59.7726 16.9543C59.7843 20.5018 59.7819 24.0499 59.7795 27.5978V27.5979C59.7782 29.4885 59.7769 31.3791 59.7777 33.2695C59.8338 33.5179 59.6058 33.7126 59.3716 33.6134C59.0068 33.5963 58.8537 33.2891 58.709 32.9989L58.709 32.9988C58.6703 32.9212 58.6322 32.8447 58.5908 32.7754C57.5469 30.8557 56.507 28.9337 55.4672 27.0115C53.6731 23.6952 51.8789 20.3787 50.0632 17.074C50.0316 19.2942 50.0361 21.5157 50.0406 23.7372V23.7386C50.0439 25.3585 50.0472 26.9785 50.0365 28.5981C51.3915 28.8542 52.7109 29.5075 53.5973 30.5849C53.7447 30.4708 53.8735 30.3256 54.0024 30.1803C54.233 29.9203 54.4638 29.6601 54.802 29.5775C54.6832 29.7937 54.5161 29.9756 54.3499 30.1565L54.2875 30.2245C53.6044 30.9807 52.9223 31.7391 52.2403 32.4975L52.2392 32.4987C51.8981 32.878 51.557 33.2573 51.2158 33.6363C50.7409 33.0377 50.1079 32.4697 49.3157 32.3882C48.7948 32.3679 48.1925 32.3946 47.8129 32.806C47.3761 33.1957 47.0833 33.8528 47.3952 34.4093C47.7555 35.1965 48.6542 35.4181 49.4215 35.6072L49.4545 35.6154C48.4866 35.8064 47.4029 35.6943 46.6223 35.0461C46.0008 34.515 45.4365 33.8412 45.2749 33.0186C45.0571 31.8852 45.3958 30.6255 46.2427 29.8219C47.1687 28.9063 48.5262 28.565 49.7972 28.6375C49.8291 27.0838 49.8182 25.5302 49.8073 23.9766V23.9761L49.8048 23.6173C49.1872 23.5192 48.3454 23.6071 48.0575 24.2528C47.8907 24.7762 48.2831 25.2168 48.6714 25.5034L48.6636 25.502C48.1842 25.4183 47.6532 25.3256 47.3074 24.9545C46.8973 24.4489 46.579 23.8516 46.4605 23.2072C46.3421 22.3781 46.5599 21.4332 47.2501 20.8996C47.9722 20.3405 48.9337 20.2641 49.815 20.2844V16.7466C49.7775 16.6902 49.7401 16.6328 49.7025 16.5751C49.4199 16.1413 49.124 15.6871 48.6397 15.4679C48.2805 15.3189 47.8119 15.2654 47.5024 15.5456C47.1531 15.8419 47.0201 16.2809 46.8909 16.7072L46.8909 16.7073C46.8619 16.8031 46.833 16.8983 46.802 16.9911C46.6377 15.757 46.7612 14.3574 47.6259 13.3895C48.6702 12.037 50.8798 11.9874 52.0222 13.238C52.5109 13.7405 52.8476 14.359 53.1803 14.97L53.1804 14.9701L53.1914 14.9904C54.031 16.4855 54.8641 17.9845 55.6971 19.4835L55.6974 19.4842C56.9617 21.7591 58.2259 24.034 59.5132 26.2955C59.526 23.1843 59.5323 20.0706 59.5107 16.9592C59.3186 16.8846 59.115 16.85 58.9111 16.8154C58.7256 16.784 58.5397 16.7524 58.3618 16.6905C57.6665 16.5071 57.087 16.0589 56.5725 15.5736L56.4891 15.6716C56.1957 16.0158 55.9021 16.3604 55.6288 16.7198L55.5017 16.6507L55.35 16.5683C56.1153 15.6037 56.919 14.6696 57.7227 13.7355L57.7228 13.7355L57.723 13.7352C58.0695 13.3325 58.4159 12.9299 58.7593 12.5248C59.3566 13.1539 60.1361 13.6684 61.0249 13.7257C61.9529 13.6189 62.8661 12.8764 62.931 11.8996ZM135.528 13.9281L135.531 13.926L135.537 13.9221C136.56 13.2533 137.583 12.5842 138.61 11.9225C138.615 14.4664 138.614 17.0105 138.612 19.5546V19.5644C138.61 22.8937 138.609 26.2231 138.622 29.5521C138.863 29.8792 139.167 30.1641 139.469 30.4473C139.583 30.5543 139.697 30.661 139.807 30.7697C140.012 30.5499 140.224 30.3377 140.436 30.1255L140.581 29.9801C140.642 30.0411 140.764 30.1635 140.827 30.2234C140.281 30.6968 139.742 31.1784 139.204 31.6599L139.203 31.66C138.535 32.2572 137.868 32.8542 137.186 33.4352C136.832 33.072 136.473 32.7146 136.113 32.3574L136.113 32.3568L136.112 32.3566C135.684 31.9312 135.257 31.506 134.839 31.0714C134.575 31.3063 134.328 31.5585 134.081 31.8107L134.078 31.8138C134.003 31.89 133.928 31.9662 133.853 32.042C133.819 32.0154 133.766 31.9747 133.714 31.9346C133.667 31.8976 133.62 31.8613 133.588 31.8369C133.902 31.5369 134.227 31.2503 134.553 30.9636C134.837 30.7136 135.121 30.4635 135.398 30.2042C135.396 28.2455 135.396 26.2868 135.397 24.3282C135.397 21.8335 135.398 19.339 135.393 16.8449C135.379 16.0119 134.954 15.0147 134.022 14.9115C134.524 14.5844 135.026 14.2563 135.528 13.9281ZM21.789 13.6588L21.7891 13.6588C22.4678 13.1392 23.1464 12.6198 23.8322 12.111C23.8356 13.8067 23.8351 15.5027 23.8346 17.1988C23.8341 18.741 23.8336 20.2833 23.8361 21.8255C24.1859 21.5369 24.5366 21.2494 24.8872 20.9619C25.6536 20.3336 26.4198 19.7054 27.1764 19.0658C27.533 19.4357 27.88 19.8149 28.227 20.194C28.7413 20.7559 29.2554 21.3176 29.7999 21.8485C30.1846 21.5721 30.5793 21.3098 30.983 21.0627C30.936 21.3953 30.6616 21.5862 30.3876 21.7768C30.2389 21.8802 30.0902 21.9836 29.9782 22.1095C29.9805 23.1717 29.98 24.2333 29.9796 25.2951C29.9793 26.0029 29.979 26.7108 29.9795 27.4189C29.9944 28.1968 29.9346 28.9716 29.8747 29.7467C29.8328 30.29 29.7908 30.8335 29.7746 31.3783C29.7146 32.8123 29.1582 34.2783 28.04 35.2193C27.1306 36.0319 25.8877 36.3247 24.7021 36.4228C24.6892 36.4405 24.6671 36.47 24.6471 36.4967L24.647 36.4969L24.6167 36.5373L24.6486 36.433C24.2398 36.433 23.8322 36.4177 23.4247 36.3871C23.5607 36.3168 23.7015 36.2532 23.8424 36.1894L23.8425 36.1894C24.2322 36.0133 24.6234 35.8365 24.9198 35.5148C24.9989 35.4266 25.0801 35.3392 25.1616 35.2514L25.1616 35.2514C25.5584 34.8243 25.9622 34.3896 26.1514 33.8286C26.4993 32.8668 26.5328 31.8353 26.5656 30.8227V30.8227L26.5729 30.6027C26.5686 29.5919 26.5699 28.5808 26.5712 27.5698C26.573 26.1543 26.5748 24.739 26.5614 23.3245C26.2434 22.9096 25.8882 22.5235 25.5328 22.1372C25.2849 21.8677 25.0369 21.5981 24.8014 21.3187C24.6855 21.4426 24.561 21.5592 24.4366 21.6758C24.2248 21.8743 24.0131 22.0727 23.8437 22.3069C23.8304 23.8477 23.8325 25.389 23.8346 26.9301V26.9302C23.8359 27.8934 23.8372 28.8565 23.8348 29.8194C23.9335 29.9177 24.0321 30.0163 24.1307 30.1149C24.3566 30.3407 24.5825 30.5666 24.8103 30.7899C25.0524 30.5468 25.2942 30.3026 25.5362 30.0583L25.5974 29.9965C25.6286 30.027 25.6759 30.0736 25.7221 30.1192L25.7233 30.1203C25.7637 30.1602 25.8032 30.1992 25.8304 30.2258C25.2106 30.7105 24.5938 31.1988 23.9772 31.6871L23.9771 31.6872C23.3267 32.2021 22.6764 32.717 22.0227 33.2275C21.413 32.6862 20.8142 32.1332 20.2153 31.5801L20.2147 31.5796C20.022 31.4016 19.8292 31.2236 19.6361 31.0459C19.5452 31.1137 19.4544 31.1819 19.3635 31.25L19.363 31.2503C19.1878 31.3817 19.0123 31.5133 18.8363 31.6431C18.8202 31.6262 18.7997 31.6046 18.7772 31.5808C18.76 31.5625 18.7415 31.543 18.7231 31.5235C18.6807 31.4785 18.6383 31.4336 18.6097 31.4037C19.0104 31.1457 19.4061 30.8802 19.8016 30.6149L19.802 30.6146C20.0098 30.4752 20.2175 30.3358 20.4258 30.1976C20.4245 25.7454 20.4245 21.2944 20.4258 16.8421C20.4241 16.797 20.4229 16.7515 20.4217 16.7057C20.4139 16.4059 20.4058 16.0951 20.2501 15.8322C20.1672 15.6701 20.0116 15.5853 19.8571 15.501L19.8571 15.501C19.7906 15.4647 19.7243 15.4286 19.6641 15.3864C19.6335 15.2854 19.723 15.2242 19.8078 15.1663C19.8468 15.1396 19.8849 15.1136 19.9098 15.0847C20.5401 14.6149 21.1646 14.1368 21.789 13.6588ZM107.624 12.721C106.851 13.3468 106.089 13.985 105.327 14.6233L105.326 14.6242C104.908 14.9742 104.491 15.3243 104.071 15.6725C104.066 15.2958 104.067 14.9194 104.069 14.5431C104.071 13.9932 104.074 13.4434 104.055 12.893C103.872 12.8841 103.791 12.9668 103.816 13.1413C103.813 16.5657 103.813 19.99 103.814 23.4142C103.815 26.5433 103.815 29.6723 103.813 32.8015C103.166 32.6778 102.518 32.5487 101.877 32.4035C101.871 28.9766 101.872 25.5501 101.873 22.1233C101.874 20.0231 101.875 17.9228 101.874 15.8221C101.86 15.1229 101.633 14.4199 101.174 13.8863C100.6 13.2075 99.7046 12.8923 98.84 12.8325C97.8146 12.8032 96.8748 13.3419 96.159 14.036C95.5006 14.6613 95.1473 15.6279 95.3344 16.5257C95.4147 15.9692 95.5961 15.342 96.1081 15.0325C96.6697 14.7931 97.4179 14.986 97.7541 15.5133C98.042 15.9386 98.0706 16.4703 98.0821 16.9683C98.0835 17.7878 98.0829 18.6073 98.0824 19.4271V19.4273C98.0819 20.1017 98.0814 20.7763 98.0821 21.4511C97.0964 21.4664 95.9324 21.6256 95.363 22.54C94.7899 23.2557 94.6128 24.2707 95.0064 25.1125C95.2649 25.9454 96.1309 26.3747 96.9356 26.5071C96.4849 26.2155 96.0263 25.7023 96.2925 25.1316C96.6505 24.5585 97.4642 24.4745 98.0691 24.6413C98.0903 26.9611 98.0841 29.28 98.078 31.5996L98.0755 32.5945C97.1712 32.9103 96.2912 33.4586 95.8086 34.3106C95.4571 34.9181 95.4482 35.6447 95.4774 36.326C95.5857 37.5206 96.374 38.6112 97.4323 39.1564C98.2321 39.5308 99.1325 39.5423 99.9985 39.513C101.182 39.4426 102.337 39.1799 103.491 38.9173C104.734 38.6345 105.977 38.3519 107.254 38.3097C107.988 38.2548 108.418 39.0655 108.226 39.701C108.079 40.2754 107.598 40.6638 107.143 41C108.008 40.8166 108.869 40.4919 109.544 39.9046C110.305 39.2591 110.655 38.2178 110.607 37.2398C110.55 36.2719 109.769 35.5517 108.958 35.1352C107.889 34.5087 106.599 34.6482 105.424 34.7756C104.517 34.8802 103.62 35.06 102.723 35.2399L102.723 35.2399C101.435 35.498 100.148 35.756 98.8333 35.7912C98.077 35.8422 97.3708 35.3067 97.2191 34.5655C97.0485 33.8511 97.6286 33.2262 98.2157 32.9194C99.4865 32.3196 100.949 32.5417 102.275 32.8207C103.041 32.9008 103.784 33.0967 104.527 33.2927C105.274 33.4899 106.021 33.6871 106.793 33.7663C107.667 33.8657 108.594 33.6977 109.311 33.1679C110.05 32.712 110.383 31.8235 110.403 30.987C110.407 28.782 110.406 26.5772 110.405 24.3723C110.403 21.361 110.402 18.3498 110.413 15.3384C110.553 15.2163 110.698 15.098 110.843 14.9794L110.843 14.9793C111.19 14.6961 111.537 14.412 111.83 14.0744C111.448 14.169 111.16 14.4367 110.872 14.7037C110.722 14.843 110.573 14.9821 110.41 15.0964C109.752 14.5495 109.105 13.9927 108.457 13.4355C108.179 13.1972 107.902 12.9588 107.624 12.721ZM105.96 16.1743L105.961 16.1756C106.178 16.3657 106.396 16.556 106.615 16.7454C106.615 17.4299 106.614 18.1145 106.614 18.799C106.613 19.7573 106.612 20.7157 106.615 21.674C106.361 21.9236 106.084 22.1872 105.713 22.2343C105.11 22.3617 104.522 22.0631 104.067 21.6899C104.07 19.7724 104.069 17.8555 104.067 15.938V15.9374V15.9367C104.386 15.7457 104.704 15.5547 105.019 15.3573C105.335 15.6275 105.647 15.9007 105.96 16.1743ZM104.067 22.1452C104.85 22.5425 105.856 22.6629 106.615 22.1484C106.612 22.8934 106.612 23.6416 106.615 24.3866C106.306 24.0861 105.91 23.8473 105.468 23.8486C104.949 23.8371 104.471 24.0822 104.067 24.3866C104.069 23.9721 104.068 23.5572 104.068 23.1421V23.142C104.067 22.8098 104.067 22.4775 104.067 22.1452ZM105.462 24.0842C105.966 24.0969 106.353 24.4732 106.615 24.8706C106.612 26.0661 106.613 27.262 106.614 28.4579C106.615 29.3423 106.615 30.2267 106.615 31.1109C106.655 31.7489 106.216 32.2946 105.736 32.6614C105.272 33.0295 104.643 33.0422 104.08 33.0116C104.061 31.3882 104.064 29.7632 104.068 28.1384V28.1369V28.1367C104.07 27.0435 104.072 25.9503 104.067 24.8578C104.432 24.4618 104.893 24.0765 105.462 24.0842ZM168.159 16.1112C168.506 15.807 168.845 15.4933 169.183 15.1797C169.65 14.7475 170.116 14.3153 170.604 13.908C171.025 14.3516 171.458 14.7824 171.892 15.2132L171.893 15.2142C172.195 15.5139 172.496 15.8136 172.794 16.1176C171.924 16.9314 171.049 17.7388 170.168 18.5398C169.889 18.1999 169.608 17.8633 169.327 17.5269C168.934 17.0577 168.542 16.5888 168.159 16.1112ZM72.9117 16.8855C73.3192 16.6058 73.8117 16.5606 74.2945 16.5163C74.4228 16.5045 74.5505 16.4927 74.6757 16.4767C74.2261 16.832 73.7269 17.2446 73.6656 17.8572C73.565 18.4048 73.9115 18.8977 74.3153 19.2263C74.5934 19.4489 74.9014 19.6344 75.2093 19.8198C75.715 20.1243 76.2203 20.4285 76.5923 20.8971C76.8802 21.2614 77.0546 21.7224 77.0419 22.1898C77.0402 23.2878 77.0405 24.3855 77.0408 25.4831C77.0412 26.8553 77.0416 28.2272 77.0381 29.5992C77.3481 29.8497 77.6587 30.0989 77.9692 30.3479C78.3168 30.6268 78.6643 30.9055 79.0107 31.186C79.2017 31.0625 79.3927 30.9391 79.5851 30.8154C79.5816 29.7463 79.5831 28.677 79.5845 27.6077C79.5867 25.9805 79.5889 24.3534 79.5736 22.7272C79.3655 22.4814 79.1081 22.2787 78.8507 22.0761C78.6907 21.9501 78.5308 21.8242 78.3828 21.688C78.702 21.3941 79.019 21.0977 79.336 20.8012L79.3362 20.801C79.9602 20.2174 80.5844 19.6337 81.2253 19.0696C81.7884 19.6225 82.3709 20.1553 82.9533 20.688L82.9537 20.6884C83.2406 20.9508 83.5274 21.2131 83.8119 21.4779C83.4846 21.8241 83.1478 22.1613 82.802 22.4891C82.7984 23.8055 82.7988 25.1219 82.7992 26.4383C82.7995 27.492 82.7998 28.5456 82.7981 29.5992L82.9546 29.7205L82.9553 29.721C83.7639 30.3479 84.573 30.9751 85.3898 31.5923C85.5122 31.5208 85.6357 31.4509 85.7618 31.3809C85.7549 29.8236 85.7558 28.2666 85.7567 26.7096C85.7574 25.3725 85.7582 24.0353 85.754 22.6979C85.5875 22.5559 85.4185 22.4165 85.2496 22.2771L85.2495 22.277L85.2495 22.277C85.0139 22.0827 84.7784 21.8884 84.5492 21.6867C85.1405 21.1279 85.7364 20.5752 86.3323 20.0225L86.3328 20.022C86.6738 19.7058 87.0147 19.3896 87.3549 19.0722L87.5775 19.2463C88.4344 19.9168 89.2918 20.5877 90.1438 21.2639C90.4648 20.9099 90.7934 20.5584 91.16 20.2489C91.1832 20.2821 91.2184 20.3319 91.2538 20.382L91.2552 20.384C91.2913 20.4351 91.3274 20.4863 91.3511 20.5202C90.5589 21.2257 89.7719 21.9402 89.0039 22.6724C88.9655 24.0081 88.9712 25.3464 88.9768 26.6845V26.6846C88.9809 27.6582 88.985 28.6318 88.9721 29.6043C87.7755 30.3904 86.5475 31.1358 85.3192 31.8813L85.319 31.8814C84.478 32.3919 83.6369 32.9024 82.8057 33.4262C82.1163 32.9322 81.4394 32.421 80.7628 31.91L80.7623 31.9096C80.3802 31.621 79.9982 31.3325 79.6141 31.0472L79.5588 31.0916L79.5576 31.0926C78.6212 31.8454 77.6835 32.5993 76.741 33.3447C76.6399 33.4569 76.5369 33.3665 76.4443 33.2853C76.4109 33.256 76.3788 33.2278 76.3487 33.2109C76.1438 33.0464 75.9392 32.8815 75.7346 32.7167L75.7343 32.7164C75.041 32.1578 74.348 31.5994 73.645 31.0548C73.4516 31.2237 73.2533 31.3871 73.0549 31.5505C72.8614 31.7099 72.6678 31.8693 72.4786 32.0341L72.4119 31.9699C72.3516 31.912 72.2796 31.8426 72.2366 31.8023C72.4709 31.6402 72.7025 31.4739 72.9342 31.3076L72.9344 31.3075L72.9349 31.3072C73.1653 31.1418 73.3957 30.9765 73.6286 30.8153C73.6312 28.5777 73.6312 26.3414 73.6286 24.1038C73.6273 23.5052 73.4172 22.899 73.0084 22.4558C72.8344 22.2671 72.6372 22.1001 72.44 21.9331C72.1276 21.6686 71.8154 21.4042 71.596 21.0537C71.1999 20.3889 71.1643 19.5649 71.3158 18.8223C71.5376 17.9833 72.2037 17.344 72.9117 16.8855ZM214.649 18.4838C214.74 18.7181 214.769 18.9798 214.655 19.2129C214.373 19.856 213.607 20.1031 212.955 20.0916C212.272 20.0305 211.74 19.5395 211.28 19.076C210.918 19.3182 210.556 19.5596 210.194 19.801C209.783 20.0748 209.372 20.3485 208.962 20.6233C208.073 21.2219 207.092 21.6638 206.106 22.0752C206.104 22.69 206.105 23.3042 206.105 23.9184C206.105 24.5688 206.105 25.2192 206.103 25.8703C206.375 26.0971 206.65 26.32 206.925 26.5429C207.377 26.9096 207.829 27.2762 208.268 27.6596C207.727 28.2327 207.193 28.8139 206.683 29.4138C206.158 30.0454 205.662 30.7752 205.632 31.6235C205.601 32.5874 206.014 33.6312 206.867 34.1418C207.244 34.3634 207.703 34.5608 208.141 34.3901C207.596 34.1952 206.925 33.8005 206.972 33.1357C207.124 32.5065 207.871 32.0856 208.491 32.2665C209.134 32.4499 209.665 32.9096 210.077 33.4254C211.73 32.2346 213.47 31.1706 215.279 30.232C215.273 29.5864 215.276 28.9401 215.278 28.2937C215.282 27.3325 215.286 26.3712 215.263 25.4117C214.815 25.0975 214.379 24.7676 213.943 24.4377L213.942 24.437C213.601 24.1788 213.26 23.9206 212.913 23.6701C213.749 22.6118 214.589 21.4924 214.938 20.1679C215.068 19.609 215.112 18.9041 214.649 18.4838ZM209.325 20.8908C209.861 21.6613 210.571 22.4107 211.544 22.5686C212.513 22.7966 213.453 22.2713 214.088 21.5721C213.218 23.1806 211.869 24.4719 210.475 25.6283C210.296 25.4395 210.112 25.2567 209.928 25.0741L209.927 25.0736L209.927 25.0734C209.721 24.8695 209.516 24.6656 209.319 24.4535C209.328 23.7098 209.327 22.9654 209.325 22.2212C209.324 21.7776 209.324 21.3341 209.325 20.8908ZM211.41 26.3042L211.41 26.3042L211.41 26.3044C211.586 26.4549 211.762 26.6054 211.939 26.7554C212.073 26.836 212.067 26.9785 212.061 27.1188C212.058 27.1779 212.055 27.2367 212.063 27.2903C212.059 27.8329 212.06 28.3763 212.062 28.9197V28.9199V28.9231C212.065 29.7599 212.067 30.597 212.047 31.4324C211.735 30.7268 211.268 30.0704 210.608 29.6526C209.652 29.0274 208.337 28.9911 207.364 29.5984C206.918 29.8454 206.561 30.2142 206.224 30.5886C206.663 29.7313 207.348 29.0383 208.021 28.3582L208.023 28.3561C208.089 28.2893 208.155 28.2227 208.22 28.156L208.246 28.1313C209.075 27.3324 209.904 26.534 210.691 25.692C210.932 25.8946 211.171 26.0993 211.41 26.3042ZM36.3987 20.4968L36.3984 20.4969C36.092 20.6904 35.7857 20.8839 35.4782 21.0754C34.8667 21.3944 34.2487 21.7013 33.6311 22.0081L33.6309 22.0082L33.6304 22.0084C33.3258 22.1597 33.0213 22.311 32.7177 22.4636C32.7192 23.4702 32.7189 24.4769 32.7187 25.4836C32.7183 27.0558 32.718 28.6281 32.7242 30.2003C32.569 30.3207 32.4036 30.4278 32.2382 30.5348C31.9855 30.6984 31.7329 30.8618 31.5174 31.0728C31.5862 31.1134 31.7224 31.1963 31.7912 31.2384L31.8809 31.1607C32.1589 30.9199 32.4372 30.6789 32.7432 30.4742C33.3294 30.9615 33.8987 31.4696 34.4681 31.9778L34.4683 31.9779C35.0059 32.4577 35.5436 32.9376 36.0957 33.4002C36.1516 33.371 36.2645 33.3118 36.3218 33.2824C37.3142 32.513 38.312 31.7496 39.3098 30.9862C40.2478 30.2685 41.1858 29.5508 42.1194 28.8282L41.8806 28.6181C41.247 29.1117 40.6236 29.6208 40.0004 30.1297L40.0002 30.1298L40 30.13C39.5687 30.4821 39.1376 30.8342 38.7032 31.181C38.2397 30.7639 37.7841 30.3381 37.3285 29.9123L37.3285 29.9122L37.3284 29.9122C36.9216 29.5319 36.5147 29.1515 36.102 28.7773C35.8891 28.6217 35.9134 28.3664 35.9368 28.1209L35.9368 28.1208C35.9461 28.0226 35.9553 27.926 35.9492 27.838C37.7461 26.5225 39.5438 25.2063 41.3139 23.855C40.4302 22.2706 39.575 20.6724 38.7192 19.0728C37.933 19.5278 37.1657 20.0124 36.3987 20.4968ZM36.6483 22.1308L36.65 22.1335L36.65 22.1335C37.3246 23.2393 37.9989 24.3447 38.6651 25.4564C37.7507 26.0995 36.8439 26.7503 35.9399 27.4049C35.9308 25.2615 35.9264 23.1169 35.9429 20.9735C36.1779 21.3595 36.4131 21.7452 36.6483 22.1308ZM68.5008 19.0696C67.7252 19.5803 66.9446 20.0846 66.1511 20.566C65.345 21.0705 64.4917 21.4882 63.6383 21.906L63.6382 21.9061C63.2636 22.0895 62.889 22.2729 62.5184 22.4636C62.52 23.5208 62.5191 24.5781 62.5182 25.6354V25.6403C62.5169 27.1593 62.5156 28.6783 62.5216 30.1971C62.3548 30.3214 62.1802 30.4341 62.0056 30.5469C61.7883 30.6872 61.571 30.8275 61.369 30.9899C61.388 31.0234 61.4172 31.0738 61.4465 31.1243L61.4469 31.125L61.4472 31.1255C61.4766 31.1762 61.506 31.2268 61.525 31.2605C61.6229 31.1948 61.7204 31.1286 61.818 31.0625L61.8182 31.0623C62.123 30.8556 62.4278 30.6489 62.7413 30.455C63.4583 31.1406 64.1826 31.819 64.9067 32.4972C65.2358 32.8054 65.5649 33.1136 65.8933 33.4225C67.2146 32.4411 68.5191 31.4362 69.8237 30.4313C70.4593 29.9416 71.095 29.452 71.7325 28.9651C71.9821 28.9142 71.7771 28.5092 71.6179 28.6657C70.9223 29.2051 70.2402 29.7627 69.5582 30.3204L69.5581 30.3206L69.5576 30.321C69.206 30.6085 68.8544 30.8959 68.5009 31.1809C67.8797 30.5645 67.2618 29.946 66.6438 29.3274L66.6425 29.3261L66.0653 28.7485C65.8779 28.5838 65.9036 28.3406 65.9285 28.1051C65.9385 28.0108 65.9483 27.9178 65.9443 27.8315C66.7797 27.2114 67.6026 26.5743 68.4255 25.9371L68.4256 25.9371C69.3063 25.2551 70.187 24.5732 71.083 23.9122C70.5905 22.8991 70.0465 21.9095 69.5026 20.9201L69.5024 20.9198C69.1644 20.3048 68.8264 19.69 68.5008 19.0696ZM65.9219 21.0245C66.7336 22.3465 67.4836 23.7086 68.2324 25.0685L68.453 25.4691C67.9635 25.828 67.4835 26.1996 67.0034 26.5713C66.6505 26.8444 66.2976 27.1176 65.9409 27.3858C65.9183 26.1701 65.9217 24.9535 65.925 23.7369C65.9275 22.8327 65.93 21.9285 65.9219 21.0245ZM118.735 19.076C117.885 19.5714 117.045 20.0821 116.22 20.617C115.455 21.0837 114.633 21.4436 113.813 21.8027L113.813 21.8027C113.595 21.8982 113.377 21.9937 113.161 22.0911C113.177 23.9219 113.174 25.7531 113.172 27.5842V27.5863C113.171 28.4598 113.169 29.3333 113.17 30.2068L113.004 30.3717C112.714 30.6604 112.423 30.9494 112.142 31.2446C112.202 31.2413 112.313 31.2334 112.388 31.228L112.422 31.2256C112.634 30.9991 112.854 30.7774 113.073 30.5564L113.173 30.455C113.915 31.0617 114.649 31.6769 115.383 32.292L115.384 32.2925L115.384 32.2928C115.796 32.638 116.208 32.9832 116.621 33.327C116.755 33.4556 116.9 33.3594 117.039 33.2677C117.098 33.2288 117.155 33.1906 117.21 33.1708C117.931 32.7769 118.636 32.3556 119.341 31.9344L119.341 31.9342L119.341 31.9342C120.445 31.2742 121.549 30.6144 122.712 30.0602C122.732 28.3685 122.729 26.6771 122.726 24.9852V24.985C122.725 24.1564 122.724 23.3276 122.725 22.4986C122.798 22.4258 122.871 22.3531 122.944 22.2803L122.946 22.2778L122.946 22.2777C123.217 22.0075 123.489 21.7369 123.753 21.4607C123.702 21.4616 123.614 21.4651 123.543 21.4679L123.483 21.4702C123.27 21.6449 123.056 21.8164 122.842 21.9879L122.839 21.9898C122.731 22.0765 122.623 22.1632 122.515 22.2503C122.022 21.8376 121.531 21.4236 121.04 21.0097L121.038 21.008C120.271 20.3623 119.505 19.7166 118.735 19.076ZM117.891 22.1644L117.892 22.1649L117.893 22.1656C118.371 22.6083 118.85 23.0512 119.325 23.4983C119.317 25.6922 119.318 27.8853 119.318 30.0788V30.0855L119.318 31.5471C118.784 31.0789 118.266 30.5945 117.748 30.1101L117.747 30.11L117.747 30.1097C117.36 29.7482 116.973 29.3867 116.58 29.0318L116.58 20.9449C117.015 21.3533 117.453 21.7588 117.891 22.1644ZM138.769 25.0871C140.08 23.0737 141.42 21.078 142.765 19.085C143.348 19.5797 144.066 19.8861 144.827 19.9637C145.571 19.965 146.205 19.523 146.765 19.0811C146.624 20.1675 146.262 21.2958 145.428 22.051C144.701 22.7183 143.598 22.8788 142.682 22.5528C142.142 22.3694 141.643 22.0816 141.196 21.7288C141.117 21.9147 141.052 22.107 141.005 22.3032C142.803 25.0109 144.569 27.7423 146.335 30.4723L146.524 30.7645C146.907 30.5163 147.247 30.2087 147.584 29.9029L147.584 29.9028L147.683 29.8132C147.718 29.835 147.769 29.8672 147.82 29.8999C147.877 29.9359 147.934 29.9725 147.972 29.9965C146.889 30.9622 145.778 31.896 144.666 32.8298L144.665 32.8304L144.654 32.8399C144.419 33.0369 144.185 33.2339 143.951 33.4312C143.265 32.3331 142.586 31.2312 141.907 30.1293L141.906 30.1279C140.867 28.4432 139.829 26.7584 138.769 25.0871ZM201.757 19.0729L201.529 19.2118C200.794 19.6583 200.059 20.1057 199.334 20.5661C198.637 21.0508 197.875 21.4202 197.113 21.7896L197.113 21.7897C196.666 22.0066 196.218 22.2234 195.784 22.4636C195.792 23.9412 195.79 25.4193 195.789 26.8972V26.8973C195.789 27.9976 195.788 29.0977 195.79 30.1972C195.635 30.3 195.48 30.4035 195.325 30.5069L195.324 30.5075C195.077 30.6729 194.83 30.8381 194.581 30.9995C194.605 31.0298 194.642 31.0752 194.68 31.1213L194.686 31.1286C194.725 31.1771 194.765 31.2256 194.791 31.2574C194.917 31.1637 195.039 31.0636 195.162 30.9634L195.162 30.9631L195.162 30.963C195.377 30.7869 195.592 30.6106 195.832 30.4678C196.451 31.0432 197.087 31.6003 197.723 32.1576L197.724 32.1586C198.167 32.5469 198.61 32.9353 199.048 33.3301C199.131 33.4632 199.245 33.3763 199.34 33.3039C199.362 33.2877 199.382 33.2722 199.401 33.26C200.725 32.2397 202.052 31.2236 203.378 30.2076C203.975 29.75 204.573 29.2924 205.17 28.8345C204.991 28.5208 204.793 28.698 204.605 28.8652L204.605 28.8653C204.557 28.9085 204.509 28.951 204.463 28.9841L204.221 29.1813C203.399 29.8504 202.578 30.5185 201.754 31.1842C201.398 30.8597 201.047 30.5306 200.696 30.2015L200.696 30.2014C200.133 29.6744 199.571 29.1475 198.99 28.6402C198.976 28.375 198.975 28.1094 198.987 27.8442C200.339 26.8651 201.679 25.8688 203.018 24.8726L203.026 24.8668C203.47 24.5368 203.914 24.2067 204.358 23.8773C203.497 22.2713 202.633 20.6686 201.757 19.0729ZM200.831 23.989L200.831 23.9893C201.126 24.4819 201.421 24.9745 201.722 25.4628C201.219 25.8076 200.724 26.1631 200.229 26.5185L200.228 26.5189C199.811 26.8186 199.393 27.1183 198.971 27.4113C198.98 26.1189 198.979 24.8261 198.977 23.5334C198.977 22.6949 198.976 21.8564 198.977 21.0182C199.631 21.984 200.231 22.9864 200.831 23.989ZM127.437 19.2849C127.907 19.7131 128.329 20.1907 128.751 20.6682L128.751 20.6683C128.982 20.9307 129.214 21.1931 129.454 21.4474C130.19 20.7418 130.91 20.0159 131.62 19.2836C131.697 19.3327 131.774 19.3847 131.852 19.4373L131.853 19.4376C132.3 19.7396 132.775 20.0597 133.34 19.9459C133.623 19.9266 133.823 19.751 134.026 19.5739C134.158 19.4584 134.291 19.3422 134.448 19.2683C134.449 20.2426 134.225 21.2665 133.58 22.023C132.842 22.9068 131.445 23.1654 130.456 22.5592C130.246 22.4567 130.074 22.3021 129.903 22.1475C129.766 22.0236 129.628 21.8996 129.471 21.8027C129.479 24.2021 129.476 26.6006 129.474 28.9998V29.0004L129.473 29.7941C129.998 30.1978 130.524 30.6002 131.064 30.9849C131.193 30.8999 131.313 30.7912 131.433 30.6822L131.433 30.6822C131.677 30.4613 131.922 30.2391 132.253 30.2093C131.161 31.2489 130.02 32.2414 128.88 33.2321L128.656 33.4275C128.288 33.0806 127.916 32.7372 127.545 32.3939C126.996 31.8864 126.448 31.3789 125.91 30.8602C125.658 31.0867 125.419 31.3277 125.181 31.5686L125.181 31.5688C125.087 31.6636 124.993 31.7584 124.899 31.8523C124.869 31.8181 124.824 31.7655 124.78 31.7148L124.685 31.6039C124.929 31.332 125.189 31.0749 125.449 30.8178L125.449 30.8177L125.449 30.8175C125.66 30.6098 125.87 30.4021 126.072 30.1865C126.064 29.0961 126.065 28.0058 126.067 26.9156C126.069 25.7264 126.071 24.5375 126.06 23.3489C125.914 23.0008 125.702 22.6806 125.491 22.3603L125.491 22.3601C125.352 22.1507 125.214 21.9413 125.094 21.7238C124.948 21.8096 124.817 21.9277 124.685 22.0459C124.439 22.2666 124.193 22.4878 123.856 22.4994C124.413 21.9841 124.982 21.482 125.552 20.9799L125.552 20.9796C126.186 20.4207 126.82 19.8618 127.437 19.2849ZM174.694 22.1351C175.165 21.7223 175.632 21.305 176.099 20.8877C176.706 20.3458 177.313 19.8039 177.929 19.2722C178.238 19.6137 178.552 19.9514 178.866 20.2892C179.345 20.804 179.823 21.3189 180.287 21.8472C180.954 21.3654 181.606 20.8626 182.258 20.3596L182.258 20.3594C182.731 19.9944 183.204 19.6293 183.684 19.2722C184.007 19.6185 184.327 19.967 184.648 20.3156L184.649 20.3163L184.65 20.3176C185.121 20.8299 185.592 21.3422 186.072 21.8472C186.503 21.52 186.933 21.1901 187.363 20.8603L187.367 20.8577L187.367 20.8574C188.06 20.3257 188.753 19.794 189.454 19.2734C189.929 19.8026 190.413 20.3238 190.896 20.8449L190.897 20.8454C191.205 21.1769 191.512 21.5085 191.818 21.8422C192.035 21.7037 192.244 21.5527 192.454 21.4017L192.454 21.4016C192.708 21.218 192.963 21.0344 193.232 20.873C193.262 21.1046 193.096 21.2338 192.936 21.3587L192.936 21.3588C192.899 21.3877 192.862 21.4164 192.828 21.4461C192.701 21.5483 192.576 21.653 192.451 21.7576L192.45 21.7582L192.449 21.7588C192.316 21.87 192.183 21.9811 192.048 22.0892C192.037 23.3085 192.039 24.5278 192.041 25.7471C192.042 26.8991 192.044 28.0511 192.034 29.2031C192.486 29.6721 192.948 30.1324 193.418 30.5836C193.497 30.5013 193.576 30.4196 193.656 30.3378C193.827 30.1626 193.998 29.9873 194.163 29.8067C194.21 29.8368 194.29 29.8862 194.359 29.9295C194.396 29.9521 194.429 29.9731 194.454 29.9888C193.374 31.0532 192.263 32.0882 191.152 33.1223L190.821 33.4312C190.478 33.0261 190.128 32.6263 189.778 32.2265L189.778 32.2262L189.777 32.2256C189.251 31.6238 188.724 31.0218 188.22 30.4014C188.424 30.2142 188.623 30.0194 188.819 29.8234C188.82 28.4597 188.82 27.096 188.819 25.7328C188.819 25.0513 188.819 24.3699 188.819 23.6887L188.612 23.4582L188.612 23.4577C188.032 22.8099 187.451 22.1619 186.853 21.5314L186.745 21.6408C186.587 21.8014 186.43 21.9617 186.274 22.1235C186.273 22.9998 186.274 23.8762 186.275 24.7525C186.277 26.4334 186.279 28.1143 186.268 29.7952C186.436 29.9837 186.615 30.1617 186.794 30.3401L186.794 30.3404C186.959 30.5043 187.124 30.6683 187.28 30.8408C186.795 31.2715 186.319 31.7133 185.843 32.1553L185.843 32.1558L185.842 32.1565C185.456 32.5154 185.069 32.8743 184.677 33.2274C183.86 32.3679 183.056 31.4962 182.264 30.6129C182.329 30.5329 182.413 30.4593 182.497 30.3849C182.706 30.201 182.921 30.0123 182.87 29.7112C182.866 28.8563 182.867 28.0011 182.868 27.146C182.87 26.0064 182.872 24.8669 182.86 23.7283C182.315 22.9692 181.704 22.2344 181.072 21.5416C180.887 21.7377 180.7 21.93 180.512 22.1223C180.514 23.0322 180.512 23.9423 180.511 24.8524C180.508 26.4199 180.506 27.9875 180.521 29.5547C180.7 29.8608 180.939 30.1298 181.177 30.398C181.294 30.5291 181.41 30.66 181.519 30.795C180.664 31.6929 179.782 32.5652 178.892 33.4274C178.414 32.858 177.926 32.2971 177.439 31.7362L177.439 31.7361C177.058 31.2985 176.678 30.8609 176.303 30.4194C176.453 30.3028 176.604 30.1871 176.755 30.0712L176.757 30.0692C176.875 29.9794 176.992 29.8896 177.109 29.7992V29.7965C177.101 27.7048 177.093 25.6122 177.113 23.5207C176.772 23.0984 176.408 22.6949 176.045 22.2915L176.044 22.2904C175.873 22.1005 175.702 21.9105 175.533 21.7186C175.415 21.8063 175.301 21.9012 175.187 21.996C174.941 22.2015 174.694 22.4072 174.401 22.5413C174.385 22.3918 174.495 22.3023 174.601 22.2153C174.634 22.1888 174.666 22.1626 174.694 22.1351ZM169.149 20.5252C168.48 21.1121 167.811 21.699 167.156 22.2994C167.433 22.1356 167.68 21.929 167.927 21.7223C168.005 21.6574 168.082 21.5924 168.161 21.5288C168.446 21.8468 168.706 22.1856 168.967 22.5245C169.11 22.7108 169.253 22.897 169.4 23.0799C169.573 23.2569 169.566 23.4973 169.558 23.732C169.555 23.8148 169.553 23.8969 169.558 23.9752C169.553 24.869 169.555 25.7632 169.556 26.6575C169.559 27.9219 169.561 29.1864 169.545 30.45C169.36 30.6216 169.182 30.8 169.003 30.9782C168.854 31.128 168.704 31.2776 168.551 31.423L168.576 31.4475C168.634 31.5018 168.719 31.5829 168.765 31.6255C168.997 31.458 169.195 31.2501 169.394 31.0419C169.518 30.9114 169.643 30.7809 169.776 30.6601L170.004 30.9242C170.722 31.7542 171.439 32.5846 172.141 33.4274C173.307 32.4329 174.469 31.4268 175.588 30.3774C175.517 30.3405 175.373 30.2652 175.302 30.2271C175.163 30.3259 175.031 30.4341 174.9 30.5422C174.712 30.6959 174.525 30.8495 174.318 30.9758C173.994 30.5615 173.642 30.1696 173.291 29.7783C173.185 29.6598 173.079 29.5413 172.973 29.4223C172.962 27.9546 172.964 26.4874 172.966 25.0201C172.967 24.1129 172.968 23.2056 172.966 22.2981C173.239 22.0786 173.51 21.8536 173.781 21.628C173.854 21.567 173.928 21.5059 174.001 21.4448C174.137 21.3621 174.177 21.2105 174.211 21.064C173.905 21.2423 173.638 21.4727 173.371 21.7028C173.236 21.8196 173.101 21.9362 172.961 22.0459C172.597 21.6289 172.238 21.2084 171.878 20.7879C171.444 20.2802 171.01 19.7725 170.569 19.2709C170.099 19.6922 169.624 20.1087 169.149 20.5252Z" clip-rule="evenodd" fill-rule="evenodd"></path>
</svg>
