<svg xmlns="http://www.w3.org/2000/svg" fill="none" viewBox="0 0 156 64" height="64" width="156">
<path fill="black" d="M125.371 25.2193C125.947 26.2136 126.136 27.3449 126.198 28.6168L126.28 30.3119V42.1658L126.364 43.8627C126.531 46.6341 128.575 48.6833 131.367 48.8576L133.055 48.9412V30.3119L133.139 28.6168C133.208 27.3592 133.395 26.2065 133.98 25.205C134.577 24.1779 135.433 23.3256 136.463 22.7339C137.492 22.1422 138.66 21.8319 139.848 21.834C141.035 21.8362 142.202 22.1508 143.229 22.7462C144.257 23.3417 145.11 24.197 145.703 25.2264C146.279 26.2207 146.459 27.3734 146.528 28.6168L146.611 30.3066V42.1658L146.695 43.8627C146.869 46.6483 148.897 48.6975 151.699 48.8576L153.387 48.9412V28.6168C153.387 25.0228 151.96 21.576 149.419 19.0343C146.878 16.4925 143.432 15.0638 139.838 15.0624C137.914 15.0604 136.012 15.4689 134.259 16.2606C132.506 17.0523 130.942 18.209 129.672 19.6535C128.401 18.2096 126.837 17.0531 125.084 16.2612C123.331 15.4692 121.43 15.06 119.506 15.0606C116.692 15.0606 114.081 15.9144 111.918 17.3891C110.598 15.9162 107.645 15.0606 105.95 15.0606V48.9412L107.645 48.8576C110.481 48.6708 112.53 46.6768 112.64 43.8627L112.731 42.1658V30.3119L112.815 28.6168C112.886 27.3378 113.064 26.2136 113.642 25.2122C114.238 24.1856 115.094 23.3336 116.123 22.7412C117.152 22.1487 118.319 21.8366 119.506 21.836C120.695 21.8363 121.862 22.149 122.891 22.7428C123.921 23.3366 124.776 24.1907 125.371 25.2193ZM9.38868 48.8594L11.0839 48.9412H36.4939L36.4102 47.2513C36.1808 44.4658 34.2081 42.4308 31.4136 42.2494L29.7184 42.1658H14.4742L34.7987 21.8342L34.7151 20.1462C34.5834 17.3321 32.5272 15.299 29.7184 15.1442L28.0233 15.0677L2.61328 15.0606L2.69688 16.7558C2.91923 19.5147 4.92037 21.5923 7.69172 21.7524L9.38868 21.836H24.6329L4.30847 42.1676L4.39207 43.8627C4.55927 46.6554 6.57464 48.6779 9.38868 48.8576V48.8594ZM99.2993 20.0199C100.873 21.5929 102.121 23.4604 102.972 25.5159C103.824 27.5713 104.262 29.7743 104.262 31.9991C104.262 34.2239 103.824 36.427 102.972 38.4824C102.121 40.5378 100.873 42.4054 99.2993 43.9784C96.1206 47.1545 91.8109 48.9386 87.3174 48.9386C82.8238 48.9386 78.5142 47.1545 75.3355 43.9784C68.7201 37.3631 68.7201 26.6352 75.3355 20.0199C76.9074 18.4474 78.7736 17.1999 80.8277 16.3487C82.8817 15.4975 85.0833 15.0592 87.3067 15.0588C89.5337 15.0573 91.7392 15.4948 93.797 16.3464C95.8548 17.198 97.7246 18.4469 99.2993 20.0217V20.0199ZM94.5055 24.8173C96.4109 26.7242 97.4813 29.3096 97.4813 32.0054C97.4813 34.7011 96.4109 37.2865 94.5055 39.1934C92.5986 41.0989 90.0131 42.1692 87.3174 42.1692C84.6216 42.1692 82.0362 41.0989 80.1293 39.1934C78.2238 37.2865 77.1535 34.7011 77.1535 32.0054C77.1535 29.3096 78.2238 26.7242 80.1293 24.8173C82.0362 22.9118 84.6216 21.8415 87.3174 21.8415C90.0131 21.8415 92.5986 22.9118 94.5055 24.8173ZM51.7523 15.0588C53.9758 15.0594 56.1775 15.498 58.2315 16.3495C60.2856 17.2011 62.1518 18.4488 63.7235 20.0217C70.3406 26.6352 70.3406 37.3648 63.7235 43.9784C60.5448 47.1545 56.2351 48.9386 51.7416 48.9386C47.2481 48.9386 42.9384 47.1545 39.7597 43.9784C33.1444 37.3631 33.1444 26.6352 39.7597 20.0199C41.3316 18.4474 43.1979 17.1999 45.2519 16.3487C47.3059 15.4975 49.5075 15.0592 51.7309 15.0588H51.7523ZM58.9297 24.8137C60.8357 26.7207 61.9064 29.3065 61.9064 32.0027C61.9064 34.6989 60.8357 37.2847 58.9297 39.1917C57.0228 41.0971 54.4374 42.1675 51.7416 42.1675C49.0459 42.1675 46.4604 41.0971 44.5535 39.1917C42.6481 37.2848 41.5777 34.6993 41.5777 32.0036C41.5777 29.3078 42.6481 26.7224 44.5535 24.8155C46.4604 22.91 49.0459 21.8397 51.7416 21.8397C54.4374 21.8397 57.0228 22.91 58.9297 24.8155V24.8137Z" clip-rule="evenodd" fill-rule="evenodd"></path>
</svg>
