<svg xmlns="http://www.w3.org/2000/svg" fill="none" viewBox="0 0 100 48" height="48" width="100">
<g clip-path="url(#clip0_105_573)">
<path fill="black" d="M76.2408 34.5912C77.6012 34.6957 78.9595 34.8069 80.3158 34.9276V11.002H76.2408V34.5912ZM10.6854 25.7143L5.37825 11.002H1.50537V36.9993C2.86098 36.8061 4.2193 36.6216 5.58033 36.4446V22.3074L10.2995 35.8641C11.784 35.6919 13.2705 35.5291 14.7604 35.3758V11.002H10.6854V25.7143ZM18.6793 34.9968C22.4349 34.6557 26.2088 34.3742 29.9989 34.1559V30.1399C27.5773 30.2796 25.1624 30.4457 22.7543 30.635V24.5561C24.3344 24.5405 26.4142 24.4923 28.2574 24.5147V20.4994C26.7852 20.496 24.4185 20.5198 22.7543 20.5415V15.0539H29.9989V11.0027H18.6793V34.9968ZM32.6111 15.0533H36.8759V33.8297C38.2322 33.7788 39.5906 33.7361 40.9509 33.7008V15.0533H45.2158V11.002H32.6111V15.0533ZM47.8286 33.591H51.9036V24.3194H57.4277V20.3041H51.9036V15.0539H59.2045V11.0027H47.8286V33.5917V33.591ZM98.2764 11.002H93.8006L90.85 17.8411L88.1985 11.002H83.7899L88.5274 23.2228L83.3552 35.2117C84.7861 35.3514 86.2136 35.4999 87.6383 35.6573L90.6466 28.6866L93.6257 36.3707C95.1773 36.5701 96.7255 36.7782 98.2703 36.9986L98.2764 36.9959L92.9679 23.3049L98.2764 11.002ZM65.8916 11H61.8167V33.7903C65.52 33.9178 69.2078 34.1043 72.8806 34.3498V30.3345C70.5573 30.1792 68.2272 30.0484 65.8916 29.9392V11Z"></path>
</g>
<defs>
<clipPath id="clip0_105_573">
<rect transform="translate(1.50537 11)" fill="white" height="26" width="96.771"></rect>
</clipPath>
</defs>
</svg>
