<svg xmlns="http://www.w3.org/2000/svg" fill="none" viewBox="0 0 76 48" height="48" width="76">
<path fill="black" d="M40.6845 6.12212C40.5673 6.14018 40.4523 6.36399 40.3104 6.64026L40.3104 6.64028C40.1666 6.92025 39.9951 7.2541 39.7655 7.4823C39.623 7.62218 39.4653 7.69854 39.3141 7.77171C39.1117 7.86972 38.9211 7.96202 38.7944 8.19364C38.7521 8.26976 38.738 8.37297 38.7223 8.48833C38.7068 8.60201 38.6897 8.72748 38.6424 8.85043C38.5589 9.07283 38.3807 9.20432 38.2097 9.33053C37.9997 9.48548 37.8006 9.63247 37.8006 9.92994C37.799 10.34 38.0702 10.5167 38.3967 10.7294C38.5343 10.8191 38.6818 10.9152 38.8228 11.0378C38.9498 11.1518 39.0376 11.2537 39.1161 11.3449C39.267 11.52 39.3839 11.6556 39.6793 11.7617C39.8604 11.8234 40.0832 11.7607 40.3221 11.6935C40.5891 11.6183 40.8761 11.5375 41.1474 11.6185L41.2287 11.6426C41.6202 11.7578 41.9794 11.8635 42.0686 12.2696C42.1526 12.6696 42.0629 13.29 41.5513 13.2184C41.516 13.2145 41.4567 13.2008 41.3767 13.1823C41.0658 13.1106 40.4432 12.9669 39.7122 13.0446C38.6038 13.1707 37.3388 13.5332 37.2152 14.7707C37.1471 15.4627 38.0014 16.2786 38.8262 16.1127C39.1651 16.0458 39.2075 15.7811 39.2511 15.5085C39.281 15.322 39.3114 15.132 39.4377 14.9991C39.6156 14.8159 40.1564 15.0722 40.8879 15.4189C41.8305 15.8657 43.0899 16.4626 44.2979 16.4626C45.201 16.4626 45.8726 16.2342 46.5397 15.5343C46.5563 15.5201 46.5739 15.5015 46.5925 15.4818L46.5925 15.4818C46.644 15.4274 46.7038 15.3643 46.7745 15.3593C46.8653 15.3661 47.0241 15.4559 47.0763 15.4945C47.4028 15.7573 47.7142 16.07 48.0473 16.4046L48.0475 16.4047L48.0475 16.4048L48.0476 16.4048C49.4778 17.8413 51.31 19.6812 56.4598 19.708C57.3527 19.7125 58.3703 20.1398 59.2008 20.8988C59.9416 21.5852 60.375 22.6522 60.7959 23.7351C61.4312 25.36 62.5703 26.9407 64.297 28.6997C64.3912 28.794 65.8127 29.9008 65.9262 29.9837C65.9443 29.9951 66.0487 30.2451 66.0124 30.3848L66.0107 30.4266C65.9669 31.518 65.8467 34.5081 68.0999 34.6449C68.5638 34.6685 68.541 34.401 68.5201 34.1546L68.5201 34.1544C68.5159 34.1044 68.5117 34.0553 68.5117 34.0097C68.5115 33.9015 68.5073 33.7934 68.5031 33.6853V33.6853V33.6852V33.6851V33.6851V33.685C68.4866 33.2597 68.4701 32.8341 68.6944 32.3984C68.876 32.0432 68.7042 31.7784 68.476 31.4267C68.2209 31.0336 67.8953 30.5317 67.9138 29.6735C67.9285 28.9586 67.5811 28.7371 67.1877 28.4863C66.9139 28.3118 66.6179 28.1231 66.4061 27.744C66.3502 27.6434 66.2954 27.5516 66.2435 27.4646C66.0194 27.0889 65.8481 26.8016 65.8638 26.2702C65.9795 22.5863 65.081 20.1659 64.6328 19.5716C64.5581 19.4756 64.4861 19.392 64.4222 19.3178C64.1875 19.0451 64.0625 18.8999 64.314 18.7364C66.2189 17.4762 66.6511 16.3036 66.6511 16.3036L66.7005 16.1873C67.694 13.8478 68.5957 11.7245 69.8311 10.781C70.0841 10.5833 70.7331 10.0981 71.1313 9.90721C72.3032 9.35382 72.9204 9.01861 73.2608 8.6868C73.7996 8.16068 74.2251 7.06414 73.7089 6.39939C73.0668 5.57896 71.9561 6.23007 71.466 6.52097C68.9031 8.04436 67.9393 10.4197 67.1313 12.4107C66.8352 13.1405 66.56 13.8186 66.2348 14.3843C65.267 16.0695 63.6935 17.3069 62.2867 17.4081C61.2316 17.4865 60.0948 17.2728 58.9626 16.7751C56.6268 15.7495 55.1883 14.4704 54.5888 13.9374C54.4816 13.842 54.4012 13.7705 54.3474 13.7287C54.2532 13.6559 54.0779 13.5009 53.8342 13.2853L53.8341 13.2852C52.163 11.8071 47.2724 7.48134 43.2122 7.28004C43.2122 7.28004 42.6347 6.12212 42.4895 6.10281C42.2881 6.07726 42.084 6.32418 41.8991 6.54775C41.7716 6.70206 41.6532 6.84525 41.5513 6.88004C41.4309 6.92024 41.2684 6.70988 41.1068 6.5005C40.9531 6.30145 40.8001 6.10329 40.6845 6.12212ZM20.2023 39.8217C19.7644 39.8115 19.3922 39.4513 19.3922 39.0058L19.3934 24.47H14.6103V40.4933C14.6103 41.2785 15.2456 41.9193 16.025 41.9193H24.3852C25.1703 41.9193 25.7977 41.2785 25.7977 40.4933V24.47H21.0191L21.0146 39.0058C21.0146 39.4513 20.6425 39.8115 20.2023 39.8217ZM28.9777 24.47H36.217H43.4575C44.314 24.47 45.0129 25.1677 45.0129 26.0347V41.9193H40.2252V27.3483C40.2218 26.9017 39.8565 26.5483 39.4141 26.5483C38.9682 26.5483 38.6097 26.8938 38.604 27.3358V41.9193H33.8357V27.3358C33.8255 26.8938 33.467 26.5483 33.02 26.5483C32.5753 26.5483 32.2145 26.9017 32.2111 27.3483V41.9193H27.4235V26.0347C27.4235 25.1677 28.1212 24.47 28.9777 24.47ZM8.20939 27.379C8.2128 26.8938 7.81799 26.5483 7.39935 26.5483H6.58704V35.3741H7.39935C7.82139 35.3741 8.2128 35.0378 8.20939 34.5549V27.379ZM11.4189 37.5343H6.58704V41.9193H1.80623V24.47H11.4495C12.3129 24.47 12.9868 25.1723 12.9868 26.0415V35.9628C12.9868 36.8332 12.2868 37.5343 11.4189 37.5343ZM59.6513 39.8569C59.6513 38.849 60.458 38.0172 61.4189 38.0172H61.4495C62.4331 38.0172 63.2296 38.8467 63.2296 39.8569C63.2296 40.8682 62.4331 41.6932 61.4495 41.6932C60.458 41.6932 59.6513 40.8682 59.6513 39.8569ZM61.4495 42C62.6237 42 63.5722 41.0364 63.5722 39.8512C63.5722 38.6524 62.6237 37.7047 61.4144 37.7047C60.2628 37.7047 59.3098 38.6819 59.3098 39.8512C59.3098 41.0432 60.2628 42 61.4495 42ZM61.2282 39.7151C61.5606 39.7151 61.7353 39.5969 61.7353 39.3605C61.7353 39.1503 61.5662 39.0424 61.2429 39.0424H61.1476V39.7151H61.2282ZM62.4523 41.0946H61.8816L61.1476 40.1162V41.0946H60.6813V38.6208H61.1714C61.8374 38.6208 62.1914 38.873 62.1914 39.3548C62.1914 39.6764 61.9826 39.9616 61.691 40.0469L61.657 40.0594L62.4523 41.0946ZM53.0394 27.3426V35.3776H51.4147V27.3551C51.4182 26.912 51.7835 26.5574 52.2248 26.5574C52.6706 26.5574 53.028 26.8983 53.0394 27.3426ZM53.0394 37.5388V41.9193H57.8202V26.0347C57.8202 25.1677 57.1225 24.47 56.2636 24.47H48.1905C47.3339 24.47 46.6362 25.1677 46.6362 26.0347V41.9193H51.4147V37.5388H53.0394Z" clip-rule="evenodd" fill-rule="evenodd"></path>
</svg>
