<svg xmlns="http://www.w3.org/2000/svg" fill="none" viewBox="0 0 76 48" height="48" width="76">
<path fill="black" d="M74.3325 24.5007C74.3325 19.3738 71.8491 15.3284 67.1028 15.3284C62.3365 15.3284 59.4526 19.3738 59.4526 24.4606C59.4526 30.4887 62.8572 33.5327 67.7437 33.5327C70.1268 33.5327 71.9292 32.992 73.2911 32.231V28.2256C71.9292 28.9065 70.3672 29.3271 68.3845 29.3271C66.4419 29.3271 64.7196 28.6462 64.4993 26.283H74.2924C74.2924 26.0227 74.3325 24.9813 74.3325 24.5007ZM64.4393 22.5981C64.4393 20.3351 65.8211 19.3939 67.0828 19.3939C68.3044 19.3939 69.6061 20.3351 69.6061 22.5981H64.4393ZM51.7223 15.3284C49.7597 15.3284 48.498 16.2497 47.7971 16.8905L47.5367 15.6489H43.1309V39L48.1375 37.9386L48.1576 32.271C48.8785 32.7917 49.9399 33.5327 51.7023 33.5327C55.2871 33.5327 58.5514 30.6489 58.5514 24.3004C58.5314 18.4927 55.227 15.3284 51.7223 15.3284ZM50.5207 29.1268C49.3391 29.1268 48.6382 28.7063 48.1576 28.1856L48.1375 20.7557C48.6582 20.1749 49.3792 19.7744 50.5207 19.7744C52.3431 19.7744 53.6048 21.8171 53.6048 24.4406C53.6048 27.1242 52.3632 29.1268 50.5207 29.1268ZM36.2417 14.1469L41.2684 13.0654V9L36.2417 10.0614V14.1469ZM36.2417 15.6689H41.2684V33.1923H36.2417V15.6689ZM30.8545 17.1509L30.5341 15.6689H26.2083V33.1923H31.215V21.3164C32.3965 19.7744 34.3992 20.0547 35.02 20.275V15.6689C34.3792 15.4286 32.0361 14.988 30.8545 17.1509ZM20.8411 11.3231L15.9546 12.3645L15.9346 28.4059C15.9346 31.3698 18.1576 33.5527 21.1215 33.5527C22.7637 33.5527 23.9653 33.2523 24.6262 32.8919V28.8264C23.9853 29.0868 20.8211 30.008 20.8211 27.0441V19.9346H24.6262V15.6689H20.8211L20.8411 11.3231ZM7.30308 20.7557C7.30308 19.9746 7.94394 19.6742 9.00535 19.6742C10.5274 19.6742 12.4499 20.1348 13.972 20.9559V16.2497C12.3098 15.5888 10.6676 15.3284 9.00535 15.3284C4.93993 15.3284 2.23633 17.4513 2.23633 20.996C2.23633 26.5234 9.84647 25.6422 9.84647 28.0254C9.84647 28.9466 9.04541 29.247 7.92391 29.247C6.26169 29.247 4.13886 28.5661 2.45662 27.6449V32.4112C4.3191 33.2123 6.20162 33.5527 7.92391 33.5527C12.0895 33.5527 14.9533 31.49 14.9533 27.9052C14.9333 21.9372 7.30308 22.9987 7.30308 20.7557Z" clip-rule="evenodd" fill-rule="evenodd"></path>
</svg>
