<svg xmlns="http://www.w3.org/2000/svg" fill="none" viewBox="0 0 110 48" height="48" width="110">
<path fill="black" d="M17.5384 8C8.70185 8 1.53809 15.1636 1.53809 24.0001C1.53809 32.837 8.70185 40 17.5384 40C26.3759 40 33.5388 32.837 33.5388 24.0001C33.5388 15.1641 26.3759 8.00076 17.5382 8.00076L17.5384 8ZM24.876 31.0767C24.5894 31.5467 23.9742 31.6958 23.5042 31.4073C19.7475 29.1126 15.0182 28.5929 9.44872 29.8654C8.91202 29.9877 8.37704 29.6514 8.25476 29.1145C8.1319 28.5776 8.46684 28.0426 9.00487 27.9204C15.0998 26.5279 20.3279 27.1274 24.5455 29.7049C25.0155 29.9934 25.1645 30.6067 24.876 31.0767ZM26.8344 26.7201C26.4733 27.307 25.7052 27.4924 25.1187 27.1313C20.8178 24.4877 14.2618 23.7221 9.17473 25.2663C8.51499 25.4656 7.81817 25.0937 7.61794 24.4351C7.41923 23.7754 7.79123 23.0799 8.44983 22.8793C14.2607 21.1162 21.4846 21.9702 26.4236 25.0053C27.0102 25.3664 27.1955 26.1343 26.8344 26.7201ZM27.0025 22.1835C21.8457 19.1205 13.3376 18.8389 8.4141 20.3332C7.62348 20.573 6.78738 20.1267 6.54779 19.336C6.30819 18.545 6.75414 17.7095 7.54533 17.4691C13.1972 15.7534 22.5928 16.0849 28.5299 19.6094C29.2426 20.0315 29.4757 20.9499 29.0534 21.6601C28.6331 22.3713 27.7122 22.6057 27.0033 22.1835H27.0025ZM45.0696 22.7704C42.3068 22.1116 41.8157 21.6492 41.8157 20.6777C41.8157 19.7598 42.6794 19.1421 43.9652 19.1421C45.211 19.1421 46.4452 19.6112 47.7407 20.5768C47.7789 20.606 47.8285 20.6177 47.8763 20.61C47.926 20.6028 47.968 20.5762 47.9967 20.5363L49.3456 18.6348C49.401 18.5565 49.3857 18.4485 49.3112 18.3887C47.7693 17.152 46.0344 16.5507 44.0053 16.5507C41.0228 16.5507 38.9383 18.3408 38.9383 20.902C38.9383 23.6485 40.7362 24.6211 43.8429 25.3717C46.4854 25.9807 46.9324 26.4908 46.9324 27.4026C46.9324 28.4133 46.0306 29.0419 44.5785 29.0419C42.966 29.0419 41.6495 28.4974 40.1783 27.2249C40.142 27.1924 40.0924 27.179 40.0465 27.1809C39.9968 27.1848 39.9529 27.2077 39.9223 27.244L38.4091 29.0438C38.346 29.1202 38.3537 29.2311 38.4263 29.296C40.1382 30.8245 42.2437 31.6308 44.5174 31.6308C47.7311 31.6308 49.808 29.8749 49.808 27.1561C49.8137 24.862 48.4399 23.5914 45.0753 22.7729L45.0696 22.7704ZM57.0799 20.0458C55.687 20.0458 54.5444 20.5946 53.6006 21.719V20.4534C53.6006 20.3534 53.5203 20.2721 53.421 20.2721H50.9467C50.8474 20.2721 50.7671 20.3534 50.7671 20.4534V34.5159C50.7671 34.6152 50.8474 34.6974 50.9467 34.6974H53.421C53.5203 34.6974 53.6006 34.6152 53.6006 34.5159V30.0775C54.5444 31.1341 55.687 31.6518 57.0799 31.6518C59.6688 31.6518 62.2902 29.659 62.2902 25.8494C62.294 22.039 59.6726 20.0456 57.0818 20.0456L57.0799 20.0458ZM59.4128 25.8494C59.4128 27.7885 58.2186 29.1432 56.5067 29.1432C54.8158 29.1432 53.5395 27.7274 53.5395 25.8494C53.5395 23.9712 54.8158 22.5558 56.5067 22.5558C58.19 22.5556 59.4128 23.9407 59.4128 25.8494ZM69.0061 20.0458C65.672 20.0458 63.0602 22.613 63.0602 25.8909C63.0602 29.1336 65.6548 31.6728 68.966 31.6728C72.3115 31.6728 74.931 29.1145 74.931 25.8494C74.931 22.5954 72.3287 20.0462 69.0061 20.0462V20.0458ZM69.0061 29.1623C67.233 29.1623 65.8956 27.7369 65.8956 25.8484C65.8956 23.9514 67.1872 22.5748 68.966 22.5748C70.7505 22.5748 72.0956 23.9995 72.0956 25.8899C72.0956 27.7866 70.7964 29.1623 69.0061 29.1623ZM82.05 20.2721H79.3274V17.489C79.3274 17.3893 79.2471 17.3079 79.1478 17.3079H76.6735C76.5741 17.3079 76.492 17.3893 76.492 17.489V20.2721H75.3036C75.2042 20.2721 75.124 20.3534 75.124 20.4534V22.5793C75.124 22.6791 75.2042 22.7607 75.3036 22.7607H76.492V28.2624C76.492 30.4844 77.5982 31.6117 79.7821 31.6117C80.6686 31.6117 81.4043 31.4283 82.0978 31.0347C82.1551 31.0041 82.1895 30.943 82.1895 30.878V28.8527C82.1895 28.7916 82.157 28.7324 82.1035 28.6999C82.05 28.6655 81.9832 28.6636 81.9278 28.6922C81.452 28.9311 80.9915 29.0419 80.4757 29.0419C79.6828 29.0419 79.3274 28.6808 79.3274 27.8745V22.7616H82.05C82.1494 22.7616 82.2296 22.6802 82.2296 22.5803V20.4545C82.2335 20.3546 82.1532 20.2732 82.0519 20.2732L82.05 20.2721ZM91.5345 20.2829V19.9411C91.5345 18.9356 91.9204 18.4871 92.784 18.4871C93.2999 18.4871 93.7145 18.5895 94.1788 18.7443C94.2361 18.7623 94.2953 18.7533 94.3412 18.7191C94.389 18.6849 94.4157 18.63 94.4157 18.572V16.4875C94.4157 16.4078 94.366 16.3373 94.2877 16.3138C93.7986 16.168 93.1719 16.0184 92.2318 16.0184C89.9486 16.0184 88.7392 17.305 88.7392 19.7378V20.2614H87.5508C87.4514 20.2614 87.3693 20.3427 87.3693 20.4425V22.5793C87.3693 22.6791 87.4514 22.7607 87.5508 22.7607H88.7392V31.2449C88.7392 31.3461 88.8214 31.4264 88.9207 31.4264H91.3931C91.4943 31.4264 91.5746 31.3461 91.5746 31.2449V22.7612H93.8846L97.4231 31.2449C97.0218 32.1352 96.6263 32.3129 96.0875 32.3129C95.6519 32.3129 95.1914 32.183 94.7233 31.9251C94.6794 31.9021 94.6259 31.8983 94.58 31.9117C94.5323 31.9289 94.4921 31.9633 94.473 32.0091L93.6343 33.8491C93.5941 33.937 93.6285 34.0382 93.7126 34.0841C94.5877 34.5579 95.3768 34.7604 96.3531 34.7604C98.1797 34.7604 99.1904 33.9083 100.079 31.6194L104.37 20.5306C104.393 20.4748 104.385 20.4117 104.351 20.3622C104.319 20.3131 104.263 20.2835 104.204 20.2835H101.628C101.55 20.2835 101.481 20.3326 101.456 20.405L98.8178 27.9395L95.9289 20.4001C95.9022 20.3299 95.8353 20.2835 95.7608 20.2835H91.5345V20.2829ZM86.0356 20.2721H83.5614C83.462 20.2721 83.3799 20.3534 83.3799 20.4534V31.2449C83.3799 31.3461 83.462 31.4264 83.5614 31.4264H86.0356C86.135 31.4264 86.2172 31.3461 86.2172 31.2449V20.4541C86.2172 20.3542 86.1369 20.2728 86.0356 20.2728V20.2721ZM84.8128 15.3581C83.8327 15.3581 83.0378 16.1514 83.0378 17.1313C83.0378 18.1119 83.8327 18.9061 84.8128 18.9061C85.793 18.9061 86.5859 18.1119 86.5859 17.1313C86.5859 16.1516 85.7911 15.3581 84.8128 15.3581ZM106.483 23.742C105.505 23.742 104.743 22.9557 104.743 22.001C104.743 21.0462 105.515 20.251 106.493 20.251C107.471 20.251 108.233 21.0371 108.233 21.9911C108.233 22.9458 107.462 23.742 106.483 23.742ZM106.493 20.4241C105.601 20.4241 104.926 21.133 104.926 22.001C104.926 22.8686 105.597 23.5679 106.483 23.5679C107.376 23.5679 108.05 22.8596 108.05 21.9911C108.05 21.1234 107.379 20.4241 106.493 20.4241ZM106.879 22.1701L107.372 22.8594H106.955L106.512 22.227H106.132V22.8594H105.784V21.0321H106.598C107.024 21.0321 107.303 21.2493 107.303 21.615C107.305 21.9146 107.131 22.0977 106.881 22.1701H106.879ZM106.585 21.3456H106.132V21.9236H106.585C106.81 21.9236 106.946 21.813 106.946 21.6343C106.946 21.4463 106.81 21.3456 106.585 21.3456Z"></path>
</svg>
