<svg xmlns="http://www.w3.org/2000/svg" fill="none" viewBox="0 0 513 512" height="512" width="513">
<g clip-path="url(#clip0_11270_14442)">
<rect fill="#721C1C" transform="rotate(-45 224.727 173.476)" rx="25.471" height="194.815" width="194.815" y="173.476" x="224.727"></rect>
<path stroke-width="3.58854" stroke="#E4FF97" fill="#E4FF97" d="M314.31 131.256L404.868 221.814C406.782 223.729 409.887 223.729 411.801 221.814C413.716 219.9 413.716 216.795 411.801 214.881L321.243 124.322C319.328 122.408 316.224 122.408 314.31 124.322C312.395 126.237 312.395 129.341 314.31 131.256Z"></path>
<path stroke-width="3.58854" stroke="#E4FF97" fill="#E4FF97" d="M302.943 150.459L419.012 204.584C421.466 205.728 424.383 204.666 425.527 202.212C426.672 199.758 425.61 196.841 423.156 195.697L307.087 141.572C304.633 140.428 301.716 141.49 300.572 143.944C299.427 146.398 300.489 149.315 302.943 150.459Z"></path>
<path stroke-width="3.58853" stroke="#E4FF97" fill="#E4FF97" d="M298.836 172.369L426.416 183.532C429.114 183.768 431.492 181.773 431.727 179.076C431.963 176.378 429.968 174 427.271 173.764L299.69 162.601C296.993 162.365 294.615 164.361 294.379 167.058C294.143 169.755 296.138 172.133 298.836 172.369Z"></path>
<path stroke-width="3.58853" stroke="#E4FF97" fill="#E4FF97" d="M302.465 194.377L426.169 161.232C428.784 160.531 430.336 157.843 429.635 155.227C428.935 152.612 426.246 151.06 423.631 151.761L299.927 184.906C297.312 185.607 295.76 188.295 296.461 190.911C297.161 193.526 299.85 195.078 302.465 194.377Z"></path>
<path stroke-width="3.58854" stroke="#E4FF97" fill="#E4FF97" d="M313.416 213.825L418.322 140.369C420.54 138.816 421.079 135.759 419.526 133.541C417.973 131.323 414.916 130.784 412.698 132.337L307.792 205.793C305.574 207.346 305.035 210.403 306.588 212.621C308.141 214.839 311.198 215.378 313.416 213.825Z"></path>
<path stroke-width="3.58853" stroke="#E4FF97" fill="#E4FF97" d="M330.331 228.341L403.787 123.435C405.34 121.217 404.801 118.16 402.583 116.607C400.365 115.054 397.308 115.593 395.755 117.811L322.299 222.717C320.746 224.935 321.285 227.992 323.503 229.545C325.721 231.098 328.778 230.559 330.331 228.341Z"></path>
<path stroke-width="3.58853" stroke="#E4FF97" fill="#E4FF97" d="M351.218 236.198L384.363 112.495C385.064 109.879 383.512 107.191 380.897 106.49C378.281 105.789 375.593 107.341 374.892 109.957L341.747 233.66C341.046 236.276 342.598 238.964 345.213 239.665C347.829 240.366 350.517 238.814 351.218 236.198Z"></path>
<path stroke-width="3.58853" stroke="#E4FF97" fill="#E4FF97" d="M373.512 236.444L362.349 108.863C362.113 106.166 359.735 104.17 357.038 104.406C354.34 104.642 352.345 107.02 352.581 109.718L363.744 237.298C363.98 239.995 366.358 241.991 369.055 241.755C371.753 241.519 373.748 239.141 373.512 236.444Z"></path>
<path stroke-width="3.58853" stroke="#E4FF97" fill="#E4FF97" d="M394.558 229.037L340.434 112.968C339.289 110.514 336.372 109.453 333.918 110.597C331.464 111.741 330.403 114.658 331.547 117.112L385.671 233.181C386.816 235.635 389.733 236.697 392.187 235.553C394.641 234.408 395.702 231.491 394.558 229.037Z"></path>
<path stroke-linecap="round" stroke-width="16.8713" stroke="#FF01E6" d="M186.797 183.519L186.797 163.434"></path>
<path stroke-linecap="round" stroke-width="4.21783" stroke="#B98E01" d="M186.797 181.041L186.797 165.885"></path>
<g clip-path="url(#clip1_11270_14442)">
<path fill="#4D49FC" d="M-126.453 35.5941L10.9878 35.5941C86.8944 35.5941 148.429 97.1286 148.429 173.035C148.429 248.942 86.8945 310.476 10.9879 310.476L-126.453 310.476L-126.453 35.5941Z"></path>
<path fill="#0A5C35" d="M-126.453 60.5834L10.9879 60.5834C73.0932 60.5834 123.44 110.93 123.44 173.035C123.44 235.14 73.0933 285.487 10.9879 285.487L-126.453 285.487L-126.453 60.5834Z"></path>
<path fill="#4D49FC" d="M-126.453 85.5728L10.9879 85.5728C59.292 85.5728 98.4504 124.731 98.4504 173.035C98.4504 221.339 59.2921 260.498 10.9879 260.498L-126.453 260.498L-126.453 85.5728Z"></path>
<path fill="#0A5C35" d="M-126.453 110.562L10.9879 110.562C45.4908 110.562 73.4611 138.532 73.4611 173.035C73.4611 207.538 45.4909 235.508 10.9879 235.508L-126.453 235.508L-126.453 110.562Z"></path>
<path fill="#4D49FC" d="M-126.453 135.551L10.9879 135.551C31.6897 135.551 48.4718 152.333 48.4718 173.035C48.4718 193.737 31.6897 210.519 10.9879 210.519L-126.453 210.519L-126.453 135.551Z"></path>
<path fill="#0A5C35" d="M-126.453 160.541L10.9879 160.541C17.8885 160.541 23.4825 166.135 23.4825 173.035C23.4825 179.936 17.8885 185.53 10.9879 185.53L-126.453 185.53L-126.453 160.541Z"></path>
</g>
</g>
<defs>
<clipPath id="clip0_11270_14442">
<rect transform="translate(0.5)" fill="white" height="512" width="512"></rect>
</clipPath>
<clipPath id="clip1_11270_14442">
<rect transform="translate(-126.012 36.0352)" fill="white" height="274.882" width="274.882"></rect>
</clipPath>
</defs>
</svg>
